<svg width="149" height="24" viewBox="0 0 149 24" fill="none" xmlns="http://www.w3.org/2000/svg">
<path d="M17.656 17.88C16.12 19.064 14.232 19.672 12.344 19.672C7.768 19.672 4.6 16.472 4.6 11.8C4.6 6.936 7.736 3.928 11.896 3.928C14.136 3.928 15.608 4.536 16.952 5.432L18.712 2.52C17.24 1.176 14.808 0.247999 11.896 0.247999C4.504 0.247999 0.44 5.368 0.44 11.8C0.44 18.776 5.144 23.352 11.992 23.352C14.904 23.352 17.752 22.328 19.16 20.824L17.656 17.88ZM21.0568 23H24.7368V13.112C25.5688 12.28 26.7208 11.8 27.9048 11.8C29.9208 11.8 31.1048 12.984 31.1048 15.128V23H34.7848V14.648C34.7848 10.136 32.3848 8.344 28.8648 8.344C27.2008 8.344 25.6648 9.016 24.7368 9.912V0.599998H21.0568V23ZM38.6855 12.312C39.7415 11.832 40.7975 11.32 42.4615 11.32C44.6055 11.32 45.2455 12.632 45.1495 15.032C44.4455 14.52 43.1655 14.104 41.8855 14.104C38.9735 14.104 36.6375 15.608 36.6375 18.776C36.6375 21.56 38.5255 23.192 41.1495 23.192C43.1015 23.192 44.6375 22.424 45.4055 21.336V23H48.6055V14.232C48.6055 10.424 47.1015 8.248 42.8455 8.248C40.9575 8.248 39.0055 8.888 37.7575 9.624L38.6855 12.312ZM42.3655 20.088C41.2135 20.088 40.3175 19.48 40.3175 18.392C40.3175 17.176 41.4055 16.6 42.6215 16.6C43.6775 16.6 44.5095 16.824 45.1495 17.304V18.776C44.7015 19.416 43.9015 20.088 42.3655 20.088ZM51.962 23H55.642V8.6H51.962V23ZM51.578 3.416C51.578 4.888 52.634 5.72 53.882 5.72C54.938 5.72 55.994 4.888 55.994 3.416C55.994 2.104 54.938 1.272 53.882 1.272C52.634 1.272 51.578 2.104 51.578 3.416ZM59.013 17.528C59.013 21.208 60.229 23.32 63.493 23.32C65.349 23.32 66.885 22.616 67.749 21.912L66.629 19.064C66.117 19.448 65.413 19.896 64.421 19.896C63.205 19.896 62.693 18.872 62.693 17.304V12.056H67.333V8.6H62.693V4.6H59.013V17.528ZM69.9042 23H73.5842V13.336C74.0002 12.504 74.6722 11.8 75.9522 11.8C76.7202 11.8 77.1042 11.928 77.8082 12.344L79.1202 8.888C78.6402 8.536 78.0642 8.344 76.8802 8.344C75.1522 8.344 74.2562 9.08 73.5842 10.008V8.6H69.9042V23ZM81.3767 12.312C82.4327 11.832 83.4887 11.32 85.1527 11.32C87.2967 11.32 87.9367 12.632 87.8407 15.032C87.1367 14.52 85.8567 14.104 84.5767 14.104C81.6647 14.104 79.3287 15.608 79.3287 18.776C79.3287 21.56 81.2167 23.192 83.8407 23.192C85.7927 23.192 87.3287 22.424 88.0967 21.336V23H91.2967V14.232C91.2967 10.424 89.7927 8.248 85.5367 8.248C83.6487 8.248 81.6967 8.888 80.4487 9.624L81.3767 12.312ZM85.0567 20.088C83.9047 20.088 83.0087 19.48 83.0087 18.392C83.0087 17.176 84.0967 16.6 85.3127 16.6C86.3687 16.6 87.2007 16.824 87.8407 17.304V18.776C87.3927 19.416 86.5927 20.088 85.0567 20.088ZM104.923 23V14.616H107.675L113.851 23H118.618L111.611 13.848C113.467 13.208 115.931 11.288 115.931 7.448C115.931 3.576 113.915 0.535999 107.802 0.535999C107.163 0.535999 102.234 0.599998 100.986 0.599998V23H104.923ZM107.611 4.216C110.811 4.216 111.771 5.72 111.771 7.48C111.771 9.784 109.755 10.936 107.483 10.936H104.923V4.28C105.979 4.248 106.875 4.216 107.611 4.216ZM121.153 12.312C122.209 11.832 123.265 11.32 124.929 11.32C127.073 11.32 127.713 12.632 127.617 15.032C126.913 14.52 125.633 14.104 124.353 14.104C121.441 14.104 119.105 15.608 119.105 18.776C119.105 21.56 120.993 23.192 123.617 23.192C125.569 23.192 127.105 22.424 127.873 21.336V23H131.073V14.232C131.073 10.424 129.569 8.248 125.313 8.248C123.425 8.248 121.473 8.888 120.225 9.624L121.153 12.312ZM124.833 20.088C123.681 20.088 122.785 19.48 122.785 18.392C122.785 17.176 123.873 16.6 125.089 16.6C126.145 16.6 126.977 16.824 127.617 17.304V18.776C127.169 19.416 126.369 20.088 124.833 20.088ZM132.989 15.8C132.989 20.12 136.061 23.352 140.829 23.352C145.597 23.352 148.669 20.12 148.669 15.8C148.669 11.48 145.597 8.248 140.829 8.248C136.061 8.248 132.989 11.48 132.989 15.8ZM136.925 15.8C136.925 13.304 138.653 11.704 140.829 11.704C143.069 11.704 144.765 13.368 144.765 15.8C144.765 18.296 143.101 19.928 140.829 19.928C138.589 19.928 136.925 18.2 136.925 15.8Z" fill="#14334C"/>
</svg>
