<svg width="128" height="21" viewBox="0 0 128 21" fill="none" xmlns="http://www.w3.org/2000/svg">
<path d="M14.741 15.68C13.445 16.679 11.852 17.192 10.259 17.192C6.398 17.192 3.725 14.492 3.725 10.55C3.725 6.446 6.371 3.908 9.881 3.908C11.771 3.908 13.013 4.421 14.147 5.177L15.632 2.72C14.39 1.586 12.338 0.802999 9.881 0.802999C3.644 0.802999 0.215 5.123 0.215 10.55C0.215 16.436 4.184 20.297 9.962 20.297C12.419 20.297 14.822 19.433 16.01 18.164L14.741 15.68ZM17.8804 20H20.9854V11.657C21.6874 10.955 22.6594 10.55 23.6584 10.55C25.3594 10.55 26.3584 11.549 26.3584 13.358V20H29.4634V12.953C29.4634 9.146 27.4384 7.634 24.4684 7.634C23.0644 7.634 21.7684 8.201 20.9854 8.957V1.1H17.8804V20ZM33.0246 10.982C33.9156 10.577 34.8066 10.145 36.2106 10.145C38.0196 10.145 38.5596 11.252 38.4786 13.277C37.8846 12.845 36.8046 12.494 35.7246 12.494C33.2676 12.494 31.2966 13.763 31.2966 16.436C31.2966 18.785 32.8896 20.162 35.1036 20.162C36.7506 20.162 38.0466 19.514 38.6946 18.596V20H41.3946V12.602C41.3946 9.389 40.1256 7.553 36.5346 7.553C34.9416 7.553 33.2946 8.093 32.2416 8.714L33.0246 10.982ZM36.1296 17.543C35.1576 17.543 34.4016 17.03 34.4016 16.112C34.4016 15.086 35.3196 14.6 36.3456 14.6C37.2366 14.6 37.9386 14.789 38.4786 15.194V16.436C38.1006 16.976 37.4256 17.543 36.1296 17.543ZM44.4967 20H47.6017V7.85H44.4967V20ZM44.1727 3.476C44.1727 4.718 45.0637 5.42 46.1167 5.42C47.0077 5.42 47.8987 4.718 47.8987 3.476C47.8987 2.369 47.0077 1.667 46.1167 1.667C45.0637 1.667 44.1727 2.369 44.1727 3.476ZM50.716 15.383C50.716 18.488 51.742 20.27 54.496 20.27C56.062 20.27 57.358 19.676 58.087 19.082L57.142 16.679C56.71 17.003 56.116 17.381 55.279 17.381C54.253 17.381 53.821 16.517 53.821 15.194V10.766H57.736V7.85H53.821V4.475H50.716V15.383ZM60.1755 20H63.2805V11.846C63.6315 11.144 64.1985 10.55 65.2785 10.55C65.9265 10.55 66.2505 10.658 66.8445 11.009L67.9515 8.093C67.5465 7.796 67.0605 7.634 66.0615 7.634C64.6035 7.634 63.8475 8.255 63.2805 9.038V7.85H60.1755V20ZM70.1254 10.982C71.0164 10.577 71.9074 10.145 73.3114 10.145C75.1204 10.145 75.6604 11.252 75.5794 13.277C74.9854 12.845 73.9054 12.494 72.8254 12.494C70.3684 12.494 68.3974 13.763 68.3974 16.436C68.3974 18.785 69.9904 20.162 72.2044 20.162C73.8514 20.162 75.1474 19.514 75.7954 18.596V20H78.4954V12.602C78.4954 9.389 77.2264 7.553 73.6354 7.553C72.0424 7.553 70.3954 8.093 69.3424 8.714L70.1254 10.982ZM73.2304 17.543C72.2584 17.543 71.5024 17.03 71.5024 16.112C71.5024 15.086 72.4204 14.6 73.4464 14.6C74.3374 14.6 75.0394 14.789 75.5794 15.194V16.436C75.2014 16.976 74.5264 17.543 73.2304 17.543ZM90.5321 20V12.926H92.8541L98.0651 20H102.088L96.1751 12.278C97.7411 11.738 99.8201 10.118 99.8201 6.878C99.8201 3.611 98.1191 1.046 92.9621 1.046C92.4221 1.046 88.2641 1.1 87.2111 1.1V20H90.5321ZM92.8001 4.151C95.5001 4.151 96.3101 5.42 96.3101 6.905C96.3101 8.849 94.6091 9.821 92.6921 9.821H90.5321V4.205C91.4231 4.178 92.1791 4.151 92.8001 4.151ZM104.497 10.982C105.388 10.577 106.279 10.145 107.683 10.145C109.492 10.145 110.032 11.252 109.951 13.277C109.357 12.845 108.277 12.494 107.197 12.494C104.74 12.494 102.769 13.763 102.769 16.436C102.769 18.785 104.362 20.162 106.576 20.162C108.223 20.162 109.519 19.514 110.167 18.596V20H112.867V12.602C112.867 9.389 111.598 7.553 108.007 7.553C106.414 7.553 104.767 8.093 103.714 8.714L104.497 10.982ZM107.602 17.543C106.63 17.543 105.874 17.03 105.874 16.112C105.874 15.086 106.792 14.6 107.818 14.6C108.709 14.6 109.411 14.789 109.951 15.194V16.436C109.573 16.976 108.898 17.543 107.602 17.543ZM114.754 13.925C114.754 17.57 117.346 20.297 121.369 20.297C125.392 20.297 127.984 17.57 127.984 13.925C127.984 10.28 125.392 7.553 121.369 7.553C117.346 7.553 114.754 10.28 114.754 13.925ZM118.075 13.925C118.075 11.819 119.533 10.469 121.369 10.469C123.259 10.469 124.69 11.873 124.69 13.925C124.69 16.031 123.286 17.408 121.369 17.408C119.479 17.408 118.075 15.95 118.075 13.925Z" fill="#14334C"/>
</svg>
